{
  "accessors": [
    {
      "bufferView": 2,
      "componentType": 5126,
      "count": 20,
      "max": [
        0.12715500593185425,
        0.09946060180664063,
        0.3890889883041382
      ],
      "min": [
        -0.8810579776763916,
        0.09773659706115723,
        -0.3499689996242523
      ],
      "type": "VEC3"
    },
    {
      "bufferView": 2,
      "byteOffset": 240,
      "componentType": 5126,
      "count": 20,
      "max": [
        1.0,
        1.0,
        1.0
      ],
      "min": [
        -1.0,
        0.0,
        -1.0
      ],
      "type": "VEC3"
    },
    {
      "bufferView": 3,
      "componentType": 5126,
      "count": 20,
      "max": [
        0.08862321823835373,
        0.0,
        1.0,
        1.0
      ],
      "min": [
        -0.08862321823835373,
        -0.9979910254478455,
        -0.06503545492887497,
        1.0
      ],
      "type": "VEC4"
    },
    {
      "bufferView": 1,
      "componentType": 5126,
      "count": 20,
      "max": [
        0.8315079808235168,
        0.9999200105667114
      ],
      "min": [
        7.999999797903001e-05,
        7.999999797903001e-05
      ],
      "type": "VEC2"
    },
    {
      "bufferView": 0,
      "componentType": 5125,
      "count": 30,
      "type": "SCALAR"
    },
    {
      "bufferView": 2,
      "byteOffset": 480,
      "componentType": 5126,
      "count": 4,
      "max": [
        -0.501285970211029,
        0.5909320116043091,
        -0.40072101354599
      ],
      "min": [
        -0.8212289810180664,
        0.14627499878406525,
        -0.40072101354599
      ],
      "type": "VEC3"
    },
    {
      "bufferView": 2,
      "byteOffset": 528,
      "componentType": 5126,
      "count": 4,
      "max": [
        0.0,
        -0.0,
        1.0
      ],
      "min": [
        0.0,
        -0.0,
        1.0
      ],
      "type": "VEC3"
    },
    {
      "bufferView": 3,
      "byteOffset": 320,
      "componentType": 5126,
      "count": 4,
      "max": [
        -1.0,
        1.3974882904221886e-06,
        0.0,
        1.0
      ],
      "min": [
        -1.0,
        1.3974882904221886e-06,
        0.0,
        1.0
      ],
      "type": "VEC4"
    },
    {
      "bufferView": 1,
      "byteOffset": 160,
      "componentType": 5126,
      "count": 4,
      "max": [
        0.8234210014343262,
        0.999908983707428
      ],
      "min": [
        9.100000170292333e-05,
        9.100000170292333e-05
      ],
      "type": "VEC2"
    },
    {
      "bufferView": 0,
      "byteOffset": 120,
      "componentType": 5125,
      "count": 6,
      "type": "SCALAR"
    },
    {
      "bufferView": 2,
      "byteOffset": 576,
      "componentType": 5126,
      "count": 2612,
      "max": [
        1.0,
        0.8659129738807678,
        0.46728599071502686
      ],
      "min": [
        -0.939113974571228,
        -0.8351439833641052,
        -0.46728599071502686
      ],
      "type": "VEC3"
    },
    {
      "bufferView": 2,
      "byteOffset": 31920,
      "componentType": 5126,
      "count": 2612,
      "max": [
        1.0,
        1.0,
        1.0
      ],
      "min": [
        -1.0,
        -1.0,
        -1.0
      ],
      "type": "VEC3"
    },
    {
      "bufferView": 3,
      "byteOffset": 384,
      "componentType": 5126,
      "count": 2612,
      "max": [
        1.0,
        1.0,
        1.0,
        1.0
      ],
      "min": [
        -1.0,
        -1.0,
        -1.0,
        1.0
      ],
      "type": "VEC4"
    },
    {
      "bufferView": 1,
      "byteOffset": 192,
      "componentType": 5126,
      "count": 2612,
      "max": [
        0.9994800090789795,
        0.9804180264472961
      ],
      "min": [
        0.0005200000014156103,
        0.0005200000014156103
      ],
      "type": "VEC2"
    },
    {
      "bufferView": 0,
      "byteOffset": 144,
      "componentType": 5125,
      "count": 5448,
      "type": "SCALAR"
    },
    {
      "bufferView": 2,
      "byteOffset": 63264,
      "componentType": 5126,
      "count": 1303,
      "max": [
        -0.6945729851722717,
        -0.601954996585846,
        0.45539501309394836
      ],
      "min": [
        -1.0,
        -0.8659129738807678,
        0.15416400134563446
      ],
      "type": "VEC3"
    },
    {
      "bufferView": 2,
      "byteOffset": 78900,
      "componentType": 5126,
      "count": 1303,
      "max": [
        0.9999996423721313,
        0.9987159967422485,
        1.0
      ],
      "min": [
        -0.9999996423721313,
        -0.9966232776641846,
        -1.0
      ],
      "type": "VEC3"
    },
    {
      "bufferView": 3,
      "byteOffset": 42176,
      "componentType": 5126,
      "count": 1303,
      "max": [
        1.0,
        1.0,
        0.9999996423721313,
        1.0
      ],
      "min": [
        -1.0,
        -1.0,
        -1.0,
        1.0
      ],
      "type": "VEC4"
    },
    {
      "bufferView": 1,
      "byteOffset": 21088,
      "componentType": 5126,
      "count": 1303,
      "max": [
        0.9994009733200073,
        0.9886999726295471
      ],
      "min": [
        0.0005990000208839774,
        0.0005990000208839774
      ],
      "type": "VEC2"
    },
    {
      "bufferView": 0,
      "byteOffset": 21936,
      "componentType": 5125,
      "count": 3540,
      "type": "SCALAR"
    },
    {
      "bufferView": 2,
      "byteOffset": 94536,
      "componentType": 5126,
      "count": 200,
      "max": [
        0.9256709814071655,
        0.3395639955997467,
        0.22093500196933746
      ],
      "min": [
        0.7152360081672668,
        0.09107430279254913,
        0.04709110036492348
      ],
      "type": "VEC3"
    },
    {
      "bufferView": 2,
      "byteOffset": 96936,
      "componentType": 5126,
      "count": 200,
      "max": [
        0.8639965057373047,
        0.9958080649375916,
        0.9595469236373901
      ],
      "min": [
        -0.9781147837638855,
        -0.9996359944343567,
        -0.8251136541366577
      ],
      "type": "VEC3"
    },
    {
      "bufferView": 3,
      "byteOffset": 63024,
      "componentType": 5126,
      "count": 200,
      "max": [
        0.4809247553348541,
        0.8401675224304199,
        0.8251672387123108,
        1.0
      ],
      "min": [
        -0.9364802241325378,
        -0.9806435704231262,
        -0.9232679009437561,
        1.0
      ],
      "type": "VEC4"
    },
    {
      "bufferView": 1,
      "byteOffset": 31512,
      "componentType": 5126,
      "count": 200,
      "max": [
        0.9998549818992615,
        0.8322650194168091
      ],
      "min": [
        0.0001449999981559813,
        0.0001449999981559813
      ],
      "type": "VEC2"
    },
    {
      "bufferView": 0,
      "byteOffset": 36096,
      "componentType": 5125,
      "count": 564,
      "type": "SCALAR"
    },
    {
      "bufferView": 2,
      "byteOffset": 99336,
      "componentType": 5126,
      "count": 216,
      "max": [
        0.7994949817657471,
        -0.39048099517822266,
        0.45240598917007446
      ],
      "min": [
        -0.7156500220298767,
        -0.4109269976615906,
        -0.448309987783432
      ],
      "type": "VEC3"
    },
    {
      "bufferView": 2,
      "byteOffset": 101928,
      "componentType": 5126,
      "count": 216,
      "max": [
        1.0,
        1.0,
        1.0
      ],
      "min": [
        -1.0,
        -1.0,
        -1.0
      ],
      "type": "VEC3"
    },
    {
      "bufferView": 3,
      "byteOffset": 66224,
      "componentType": 5126,
      "count": 216,
      "max": [
        1.0,
        1.0,
        0.00017677828145679086,
        1.0
      ],
      "min": [
        -1.0,
        -1.0,
        -0.00017941654368769377,
        1.0
      ],
      "type": "VEC4"
    },
    {
      "bufferView": 1,
      "byteOffset": 33112,
      "componentType": 5126,
      "count": 216,
      "max": [
        0.9884970188140869,
        0.9997270107269287
      ],
      "min": [
        0.0002730000123847276,
        0.0002730000123847276
      ],
      "type": "VEC2"
    },
    {
      "bufferView": 0,
      "byteOffset": 38352,
      "componentType": 5125,
      "count": 324,
      "type": "SCALAR"
    },
    {
      "bufferView": 2,
      "byteOffset": 104520,
      "componentType": 5126,
      "count": 2585,
      "max": [
        0.7245979905128479,
        -0.0311840008944273,
        0.2856430113315582
      ],
      "min": [
        -0.669359028339386,
        -0.8158109784126282,
        -0.2075289934873581
      ],
      "type": "VEC3"
    },
    {
      "bufferView": 2,
      "byteOffset": 135540,
      "componentType": 5126,
      "count": 2585,
      "max": [
        0.999875545501709,
        0.9999982118606567,
        0.9998072981834412
      ],
      "min": [
        -0.9999771118164063,
        -1.0,
        -0.9984790682792664
      ],
      "type": "VEC3"
    },
    {
      "bufferView": 3,
      "byteOffset": 69680,
      "componentType": 5126,
      "count": 2585,
      "max": [
        0.9940555691719055,
        1.0,
        0.9999647736549377,
        1.0
      ],
      "min": [
        -0.9995761513710022,
        -1.0,
        -0.9977449178695679,
        1.0
      ],
      "type": "VEC4"
    },
    {
      "bufferView": 1,
      "byteOffset": 34840,
      "componentType": 5126,
      "count": 2585,
      "max": [
        0.9994540214538574,
        0.9834740161895752
      ],
      "min": [
        0.0005460000247694552,
        0.0005460000247694552
      ],
      "type": "VEC2"
    },
    {
      "bufferView": 0,
      "byteOffset": 39648,
      "componentType": 5125,
      "count": 8964,
      "type": "SCALAR"
    },
    {
      "bufferView": 2,
      "byteOffset": 166560,
      "componentType": 5126,
      "count": 2862,
      "max": [
        0.557449996471405,
        0.49601900577545166,
        0.19706599414348602
      ],
      "min": [
        -0.8128970265388489,
        0.09264039993286133,
        -0.40276598930358887
      ],
      "type": "VEC3"
    },
    {
      "bufferView": 2,
      "byteOffset": 200904,
      "componentType": 5126,
      "count": 2862,
      "max": [
        1.0,
        1.0,
        1.0
      ],
      "min": [
        -1.0,
        -1.0,
        -1.0
      ],
      "type": "VEC3"
    },
    {
      "bufferView": 3,
      "byteOffset": 111040,
      "componentType": 5126,
      "count": 2862,
      "max": [
        1.0,
        1.0,
        0.999663233757019,
        1.0
      ],
      "min": [
        -1.0,
        -1.0,
        -1.0,
        -1.0
      ],
      "type": "VEC4"
    },
    {
      "bufferView": 1,
      "byteOffset": 55520,
      "componentType": 5126,
      "count": 2862,
      "max": [
        0.9991829991340637,
        0.9695090055465698
      ],
      "min": [
        0.0008169999928213656,
        0.0008169999928213656
      ],
      "type": "VEC2"
    },
    {
      "bufferView": 0,
      "byteOffset": 75504,
      "componentType": 5125,
      "count": 7248,
      "type": "SCALAR"
    }
  ],
  "asset": {
    "extras": {
      "author": "Heroinfather (https://sketchfab.com/Heroinfather)",
      "license": "CC-BY-4.0 (http://creativecommons.org/licenses/by/4.0/)",
      "source": "https://sketchfab.com/3d-models/workbench-9903d3f3a9c94c478cca7eee8ba9e6ab",
      "title": "Workbench"
    },
    "generator": "Sketchfab-12.67.0",
    "version": "2.0"
  },
  "bufferViews": [
    {
      "buffer": 0,
      "byteLength": 104496,
      "name": "floatBufferViews",
      "target": 34963
    },
    {
      "buffer": 0,
      "byteLength": 78416,
      "byteOffset": 104496,
      "byteStride": 8,
      "name": "floatBufferViews",
      "target": 34962
    },
    {
      "buffer": 0,
      "byteLength": 235248,
      "byteOffset": 182912,
      "byteStride": 12,
      "name": "floatBufferViews",
      "target": 34962
    },
    {
      "buffer": 0,
      "byteLength": 156832,
      "byteOffset": 418160,
      "byteStride": 16,
      "name": "floatBufferViews",
      "target": 34962
    }
  ],
  "buffers": [
    {
      "byteLength": 574992,
      "uri": "scene.bin"
    }
  ],
  "images": [
    {
      "uri": "textures/blinn6SG_baseColor.jpeg"
    },
    {
      "uri": "textures/blinn6SG_metallicRoughness.png"
    },
    {
      "uri": "textures/blinn6SG_normal.png"
    },
    {
      "uri": "textures/blinn4SG_baseColor.jpeg"
    },
    {
      "uri": "textures/blinn4SG_metallicRoughness.png"
    },
    {
      "uri": "textures/blinn4SG_normal.png"
    },
    {
      "uri": "textures/initialShadingGroup_baseColor.jpeg"
    },
    {
      "uri": "textures/initialShadingGroup_metallicRoughness.png"
    },
    {
      "uri": "textures/initialShadingGroup_normal.png"
    },
    {
      "uri": "textures/blinn7SG_baseColor.jpeg"
    },
    {
      "uri": "textures/blinn7SG_metallicRoughness.png"
    },
    {
      "uri": "textures/blinn7SG_normal.png"
    },
    {
      "uri": "textures/blinn5SG_baseColor.jpeg"
    },
    {
      "uri": "textures/blinn5SG_metallicRoughness.png"
    },
    {
      "uri": "textures/blinn5SG_normal.png"
    },
    {
      "uri": "textures/blinn3SG_baseColor.jpeg"
    },
    {
      "uri": "textures/blinn3SG_metallicRoughness.png"
    },
    {
      "uri": "textures/blinn3SG_normal.png"
    },
    {
      "uri": "textures/blinn9SG_baseColor.jpeg"
    },
    {
      "uri": "textures/blinn9SG_metallicRoughness.png"
    },
    {
      "uri": "textures/blinn9SG_normal.png"
    },
    {
      "uri": "textures/blinn8SG_baseColor.jpeg"
    },
    {
      "uri": "textures/blinn8SG_metallicRoughness.png"
    },
    {
      "uri": "textures/blinn8SG_normal.png"
    }
  ],
  "materials": [
    {
      "doubleSided": true,
      "name": "blinn6SG",
      "normalTexture": {
        "index": 2
      },
      "occlusionTexture": {
        "index": 1
      },
      "pbrMetallicRoughness": {
        "baseColorTexture": {
          "index": 0
        },
        "metallicRoughnessTexture": {
          "index": 1
        }
      }
    },
    {
      "doubleSided": true,
      "name": "blinn4SG",
      "normalTexture": {
        "index": 5
      },
      "occlusionTexture": {
        "index": 4
      },
      "pbrMetallicRoughness": {
        "baseColorTexture": {
          "index": 3
        },
        "metallicRoughnessTexture": {
          "index": 4
        }
      }
    },
    {
      "doubleSided": true,
      "name": "initialShadingGroup",
      "normalTexture": {
        "index": 8
      },
      "occlusionTexture": {
        "index": 7
      },
      "pbrMetallicRoughness": {
        "baseColorTexture": {
          "index": 6
        },
        "metallicRoughnessTexture": {
          "index": 7
        }
      }
    },
    {
      "doubleSided": true,
      "name": "blinn7SG",
      "normalTexture": {
        "index": 11
      },
      "occlusionTexture": {
        "index": 10
      },
      "pbrMetallicRoughness": {
        "baseColorTexture": {
          "index": 9
        },
        "metallicRoughnessTexture": {
          "index": 10
        }
      }
    },
    {
      "doubleSided": true,
      "name": "blinn5SG",
      "normalTexture": {
        "index": 14
      },
      "occlusionTexture": {
        "index": 13
      },
      "pbrMetallicRoughness": {
        "baseColorTexture": {
          "index": 12
        },
        "metallicRoughnessTexture": {
          "index": 13
        }
      }
    },
    {
      "doubleSided": true,
      "name": "blinn3SG",
      "normalTexture": {
        "index": 17
      },
      "occlusionTexture": {
        "index": 16
      },
      "pbrMetallicRoughness": {
        "baseColorTexture": {
          "index": 15
        },
        "metallicRoughnessTexture": {
          "index": 16
        }
      }
    },
    {
      "doubleSided": true,
      "name": "blinn9SG",
      "normalTexture": {
        "index": 20
      },
      "occlusionTexture": {
        "index": 19
      },
      "pbrMetallicRoughness": {
        "baseColorTexture": {
          "index": 18
        },
        "metallicRoughnessTexture": {
          "index": 19
        }
      }
    },
    {
      "doubleSided": true,
      "name": "blinn8SG",
      "normalTexture": {
        "index": 23
      },
      "occlusionTexture": {
        "index": 22
      },
      "pbrMetallicRoughness": {
        "baseColorTexture": {
          "index": 21
        },
        "metallicRoughnessTexture": {
          "index": 22
        }
      }
    }
  ],
  "meshes": [
    {
      "name": "defaultMaterial",
      "primitives": [
        {
          "attributes": {
            "NORMAL": 1,
            "POSITION": 0,
            "TANGENT": 2,
            "TEXCOORD_0": 3
          },
          "indices": 4,
          "material": 7,
          "mode": 4
        }
      ]
    },
    {
      "name": "defaultMaterial",
      "primitives": [
        {
          "attributes": {
            "NORMAL": 6,
            "POSITION": 5,
            "TANGENT": 7,
            "TEXCOORD_0": 8
          },
          "indices": 9,
          "material": 6,
          "mode": 4
        }
      ]
    },
    {
      "name": "defaultMaterial",
      "primitives": [
        {
          "attributes": {
            "NORMAL": 11,
            "POSITION": 10,
            "TANGENT": 12,
            "TEXCOORD_0": 13
          },
          "indices": 14,
          "material": 5,
          "mode": 4
        }
      ]
    },
    {
      "name": "defaultMaterial",
      "primitives": [
        {
          "attributes": {
            "NORMAL": 16,
            "POSITION": 15,
            "TANGENT": 17,
            "TEXCOORD_0": 18
          },
          "indices": 19,
          "material": 4,
          "mode": 4
        }
      ]
    },
    {
      "name": "defaultMaterial",
      "primitives": [
        {
          "attributes": {
            "NORMAL": 21,
            "POSITION": 20,
            "TANGENT": 22,
            "TEXCOORD_0": 23
          },
          "indices": 24,
          "material": 3,
          "mode": 4
        }
      ]
    },
    {
      "name": "defaultMaterial",
      "primitives": [
        {
          "attributes": {
            "NORMAL": 26,
            "POSITION": 25,
            "TANGENT": 27,
            "TEXCOORD_0": 28
          },
          "indices": 29,
          "material": 2,
          "mode": 4
        }
      ]
    },
    {
      "name": "defaultMaterial",
      "primitives": [
        {
          "attributes": {
            "NORMAL": 31,
            "POSITION": 30,
            "TANGENT": 32,
            "TEXCOORD_0": 33
          },
          "indices": 34,
          "material": 1,
          "mode": 4
        }
      ]
    },
    {
      "name": "defaultMaterial",
      "primitives": [
        {
          "attributes": {
            "NORMAL": 36,
            "POSITION": 35,
            "TANGENT": 37,
            "TEXCOORD_0": 38
          },
          "indices": 39,
          "material": 0,
          "mode": 4
        }
      ]
    }
  ],
  "nodes": [
    {
      "children": [
        1
      ],
      "matrix": [
        0.9328914880752563,
        0.0,
        0.0,
        0.0,
        0.0,
        2.0714352190759485e-16,
        -0.9328914880752563,
        0.0,
        0.0,
        0.9328914880752563,
        2.0714352190759485e-16,
        0.0,
        0.0,
        0.0,
        0.0,
        1.0
      ],
      "name": "Sketchfab_model"
    },
    {
      "children": [
        2,
        4,
        6,
        8,
        10,
        12,
        14,
        16
      ],
      "matrix": [
        1.0,
        0.0,
        0.0,
        0.0,
        0.0,
        -4.371139006309477e-08,
        0.999999999999999,
        0.0,
        0.0,
        -0.999999999999999,
        -4.371139006309477e-08,
        0.0,
        0.0,
        0.0,
        0.0,
        1.0
      ],
      "name": "Collada visual scene group"
    },
    {
      "children": [
        3
      ],
      "name": "polySurface25_pCube44"
    },
    {
      "mesh": 0,
      "name": "defaultMaterial"
    },
    {
      "children": [
        5
      ],
      "name": "pCube44_polySurface26"
    },
    {
      "mesh": 1,
      "name": "defaultMaterial"
    },
    {
      "children": [
        7
      ],
      "name": "polySurface14"
    },
    {
      "mesh": 2,
      "name": "defaultMaterial"
    },
    {
      "children": [
        9
      ],
      "name": "pCube29"
    },
    {
      "mesh": 3,
      "name": "defaultMaterial"
    },
    {
      "children": [
        11
      ],
      "name": "pCube42"
    },
    {
      "mesh": 4,
      "name": "defaultMaterial"
    },
    {
      "children": [
        13
      ],
      "name": "polySurface19"
    },
    {
      "mesh": 5,
      "name": "defaultMaterial"
    },
    {
      "children": [
        15
      ],
      "name": "pCube40"
    },
    {
      "mesh": 6,
      "name": "defaultMaterial"
    },
    {
      "children": [
        17
      ],
      "name": "pCylinder9"
    },
    {
      "mesh": 7,
      "name": "defaultMaterial"
    }
  ],
  "samplers": [
    {
      "magFilter": 9729,
      "minFilter": 9987,
      "wrapS": 10497,
      "wrapT": 10497
    }
  ],
  "scene": 0,
  "scenes": [
    {
      "name": "Sketchfab_Scene",
      "nodes": [
        0
      ]
    }
  ],
  "textures": [
    {
      "sampler": 0,
      "source": 0
    },
    {
      "sampler": 0,
      "source": 1
    },
    {
      "sampler": 0,
      "source": 2
    },
    {
      "sampler": 0,
      "source": 3
    },
    {
      "sampler": 0,
      "source": 4
    },
    {
      "sampler": 0,
      "source": 5
    },
    {
      "sampler": 0,
      "source": 6
    },
    {
      "sampler": 0,
      "source": 7
    },
    {
      "sampler": 0,
      "source": 8
    },
    {
      "sampler": 0,
      "source": 9
    },
    {
      "sampler": 0,
      "source": 10
    },
    {
      "sampler": 0,
      "source": 11
    },
    {
      "sampler": 0,
      "source": 12
    },
    {
      "sampler": 0,
      "source": 13
    },
    {
      "sampler": 0,
      "source": 14
    },
    {
      "sampler": 0,
      "source": 15
    },
    {
      "sampler": 0,
      "source": 16
    },
    {
      "sampler": 0,
      "source": 17
    },
    {
      "sampler": 0,
      "source": 18
    },
    {
      "sampler": 0,
      "source": 19
    },
    {
      "sampler": 0,
      "source": 20
    },
    {
      "sampler": 0,
      "source": 21
    },
    {
      "sampler": 0,
      "source": 22
    },
    {
      "sampler": 0,
      "source": 23
    }
  ]
}
