{
  "accessors": [
    {
      "bufferView": 2,
      "componentType": 5126,
      "count": 8,
      "max": [
        25.829849243164063,
        13.053359985351563,
        0.0
      ],
      "min": [
        -22.545150756835938,
        -11.321640014648438,
        0.0
      ],
      "type": "VEC3"
    },
    {
      "bufferView": 0,
      "componentType": 5125,
      "count": 8,
      "type": "SCALAR"
    },
    {
      "bufferView": 2,
      "byteOffset": 96,
      "componentType": 5126,
      "count": 4832,
      "max": [
        25.829849243164063,
        13.240859985351563,
        48.0
      ],
      "min": [
        -22.545150756835938,
        -11.509140014648438,
        0.0
      ],
      "type": "VEC3"
    },
    {
      "bufferView": 2,
      "byteOffset": 58080,
      "componentType": 5126,
      "count": 4832,
      "max": [
        1.0,
        1.0,
        1.0
      ],
      "min": [
        -1.0,
        -1.0,
        -1.0
      ],
      "type": "VEC3"
    },
    {
      "bufferView": 1,
      "componentType": 5126,
      "count": 4832,
      "max": [
        2.528585910797119,
        0.9167348146438599
      ],
      "min": [
        -0.02170385979115963,
        -2.5016860961914063
      ],
      "type": "VEC2"
    },
    {
      "bufferView": 0,
      "byteOffset": 32,
      "componentType": 5125,
      "count": 7344,
      "type": "SCALAR"
    },
    {
      "bufferView": 2,
      "byteOffset": 116064,
      "componentType": 5126,
      "count": 800,
      "max": [
        24.43099021911621,
        4.292688846588135,
        43.67210006713867
      ],
      "min": [
        -20.21586036682129,
        -10.408385276794434,
        6.5625
      ],
      "type": "VEC3"
    },
    {
      "bufferView": 2,
      "byteOffset": 125664,
      "componentType": 5126,
      "count": 800,
      "max": [
        1.0,
        1.0,
        0.0776664987206459
      ],
      "min": [
        -1.0,
        -1.0,
        -0.0776664987206459
      ],
      "type": "VEC3"
    },
    {
      "bufferView": 1,
      "byteOffset": 38656,
      "componentType": 5126,
      "count": 800,
      "max": [
        3.0,
        1.025149941444397
      ],
      "min": [
        -1.0,
        -3.0814569459584407e-15
      ],
      "type": "VEC2"
    },
    {
      "bufferView": 0,
      "byteOffset": 29408,
      "componentType": 5125,
      "count": 1872,
      "type": "SCALAR"
    },
    {
      "bufferView": 2,
      "byteOffset": 135264,
      "componentType": 5126,
      "count": 224,
      "max": [
        24.43099021911621,
        4.292688846588135,
        43.67210006713867
      ],
      "min": [
        -20.21586036682129,
        -10.408385276794434,
        16.172100067138672
      ],
      "type": "VEC3"
    },
    {
      "bufferView": 2,
      "byteOffset": 137952,
      "componentType": 5126,
      "count": 224,
      "max": [
        0.0,
        0.0,
        1.0
      ],
      "min": [
        0.0,
        0.0,
        -1.0
      ],
      "type": "VEC3"
    },
    {
      "bufferView": 1,
      "byteOffset": 45056,
      "componentType": 5126,
      "count": 224,
      "max": [
        0.6292060017585754,
        0.6292060017585754
      ],
      "min": [
        -6.97861074940839e-16,
        -2.358073021311376e-16
      ],
      "type": "VEC2"
    },
    {
      "bufferView": 0,
      "byteOffset": 36896,
      "componentType": 5125,
      "count": 468,
      "type": "SCALAR"
    }
  ],
  "asset": {
    "extras": {
      "author": "jimbogies (https://sketchfab.com/jimbogies)",
      "license": "CC-BY-4.0 (http://creativecommons.org/licenses/by/4.0/)",
      "source": "https://sketchfab.com/3d-models/blue-metal-shelving-unit-ef074447ede84a299e0e99141c2524ab",
      "title": "Blue Metal Shelving Unit"
    },
    "generator": "Sketchfab-12.66.0",
    "version": "2.0"
  },
  "bufferViews": [
    {
      "buffer": 0,
      "byteLength": 38768,
      "name": "floatBufferViews",
      "target": 34963
    },
    {
      "buffer": 0,
      "byteLength": 46848,
      "byteOffset": 38768,
      "byteStride": 8,
      "name": "floatBufferViews",
      "target": 34962
    },
    {
      "buffer": 0,
      "byteLength": 140640,
      "byteOffset": 85616,
      "byteStride": 12,
      "name": "floatBufferViews",
      "target": 34962
    }
  ],
  "buffers": [
    {
      "byteLength": 226256,
      "uri": "scene.bin"
    }
  ],
  "images": [
    {
      "uri": "textures/steel_baseColor.jpeg"
    },
    {
      "uri": "textures/steel_metallicRoughness.png"
    },
    {
      "uri": "textures/Cardboard02_baseColor.jpeg"
    },
    {
      "uri": "textures/Cardboard01_baseColor.jpeg"
    }
  ],
  "materials": [
    {
      "name": "edge_color000255",
      "pbrMetallicRoughness": {
        "metallicFactor": 0.0,
        "roughnessFactor": 0.6
      }
    },
    {
      "name": "steel",
      "pbrMetallicRoughness": {
        "baseColorTexture": {
          "index": 0
        },
        "metallicRoughnessTexture": {
          "index": 1
        },
        "roughnessFactor": 0.1415540315
      }
    },
    {
      "name": "Cardboard02",
      "pbrMetallicRoughness": {
        "baseColorTexture": {
          "index": 2
        },
        "metallicFactor": 0.0,
        "roughnessFactor": 0.8590144647319556
      }
    },
    {
      "name": "Cardboard01",
      "pbrMetallicRoughness": {
        "baseColorTexture": {
          "index": 3
        },
        "metallicFactor": 0.0,
        "roughnessFactor": 0.8468541184052922
      }
    }
  ],
  "meshes": [
    {
      "name": "Material2",
      "primitives": [
        {
          "attributes": {
            "POSITION": 0
          },
          "indices": 1,
          "material": 0,
          "mode": 1
        }
      ]
    },
    {
      "name": "Material2",
      "primitives": [
        {
          "attributes": {
            "NORMAL": 3,
            "POSITION": 2,
            "TEXCOORD_0": 4
          },
          "indices": 5,
          "material": 1,
          "mode": 4
        }
      ]
    },
    {
      "name": "Material2",
      "primitives": [
        {
          "attributes": {
            "NORMAL": 7,
            "POSITION": 6,
            "TEXCOORD_0": 8
          },
          "indices": 9,
          "material": 2,
          "mode": 4
        }
      ]
    },
    {
      "name": "Material2",
      "primitives": [
        {
          "attributes": {
            "NORMAL": 11,
            "POSITION": 10,
            "TEXCOORD_0": 12
          },
          "indices": 13,
          "material": 3,
          "mode": 4
        }
      ]
    }
  ],
  "nodes": [
    {
      "children": [
        1
      ],
      "matrix": [
        1.0,
        0.0,
        0.0,
        0.0,
        0.0,
        2.220446049250313e-16,
        -1.0,
        0.0,
        0.0,
        1.0,
        2.220446049250313e-16,
        0.0,
        0.0,
        0.0,
        0.0,
        1.0
      ],
      "name": "Sketchfab_model"
    },
    {
      "children": [
        2,
        3,
        4,
        5,
        6
      ],
      "name": "Collada visual scene group"
    },
    {
      "mesh": 0,
      "name": "Material2"
    },
    {
      "mesh": 1,
      "name": "Material2"
    },
    {
      "mesh": 2,
      "name": "Material2"
    },
    {
      "mesh": 3,
      "name": "Material2"
    },
    {
      "children": [
        7
      ],
      "name": "SketchUp"
    },
    {
      "children": [
        8
      ],
      "matrix": [
        0.9387099,
        -0.3447082,
        1.387779e-17,
        0.0,
        0.05995223,
        0.163262,
        0.9847595,
        0.0,
        -0.3394547,
        -0.9244035,
        0.1739217,
        0.0,
        -35.51452,
        -96.89247,
        43.30934,
        1.0
      ],
      "name": "skp_camera_Last_Saved_SketchUp_View"
    },
    {
      "name": "ID1"
    }
  ],
  "samplers": [
    {
      "magFilter": 9729,
      "minFilter": 9987,
      "wrapS": 10497,
      "wrapT": 10497
    }
  ],
  "scene": 0,
  "scenes": [
    {
      "name": "Sketchfab_Scene",
      "nodes": [
        0
      ]
    }
  ],
  "textures": [
    {
      "sampler": 0,
      "source": 0
    },
    {
      "sampler": 0,
      "source": 1
    },
    {
      "sampler": 0,
      "source": 2
    },
    {
      "sampler": 0,
      "source": 3
    }
  ]
}
